<?xml version="1.0" standalone="no"?>
<!DOCTYPE svg PUBLIC "-//W3C//DTD SVG 20010904//EN"
 "http://www.w3.org/TR/2001/REC-SVG-20010904/DTD/svg10.dtd">
<svg version="1.0" xmlns="http://www.w3.org/2000/svg"
 width="531.000000pt" height="531.000000pt" viewBox="0 0 531.000000 531.000000"
 preserveAspectRatio="xMidYMid meet">
<metadata>
Created by potrace 1.14, written by Peter Selinger 2001-2017
</metadata>
<g transform="translate(0.000000,531.000000) scale(0.100000,-0.100000)"
fill="#000000" stroke="none">
<path d="M2515 4884 c-353 -52 -662 -280 -902 -668 -142 -229 -222 -462 -258
-751 -15 -116 -12 -437 4 -529 8 -48 8 -48 -25 -62 -51 -22 -265 -72 -357 -84
-80 -11 -108 -22 -94 -37 10 -9 54 -6 290 18 110 11 201 18 204 15 3 -3 20
-63 39 -133 87 -340 249 -630 470 -843 180 -174 329 -246 530 -257 213 -12
429 57 667 213 358 235 634 572 812 994 33 78 105 287 105 306 0 7 3 15 8 18
4 2 111 16 237 31 258 29 265 31 265 51 0 17 3 17 -155 -2 -71 -8 -176 -21
-232 -28 -57 -7 -103 -12 -103 -11 0 2 11 56 25 121 65 315 59 682 -17 954
-37 136 -69 210 -89 210 -10 0 -20 -4 -23 -8 -2 -4 11 -55 31 -112 61 -177 84
-310 90 -522 4 -120 1 -226 -7 -299 -12 -109 -54 -336 -64 -346 -2 -3 -78 -13
-168 -24 -90 -10 -181 -21 -203 -24 -270 -33 -2056 -232 -2135 -238 -24 -1
-35 2 -37 13 -2 11 29 28 109 59 384 150 771 401 1084 704 313 302 444 561
432 850 -10 214 -91 340 -255 398 -57 20 -211 33 -278 23z m266 -63 c145 -56
220 -192 221 -402 1 -271 -149 -542 -456 -822 -235 -214 -483 -389 -736 -520
-128 -67 -389 -182 -396 -175 -8 9 -25 251 -23 343 9 512 175 925 513 1273
165 169 319 263 518 313 101 26 279 21 359 -10z m1152 -1823 c-116 -384 -324
-729 -592 -981 -370 -348 -735 -491 -1045 -411 -275 71 -568 379 -734 773 -28
65 -60 150 -71 188 -24 80 -61 227 -58 228 1 1 355 41 787 89 432 48 988 111
1235 140 248 30 462 54 477 55 l26 1 -25 -82z m-2573 -168 c-8 -6 -28 -9 -45
-9 -28 1 -28 1 10 13 42 13 59 11 35 -4z"/>
<path d="M2020 935 l0 -285 85 0 c69 0 85 3 85 15 0 12 -14 15 -70 15 l-70 0
0 270 c0 233 -2 270 -15 270 -13 0 -15 -38 -15 -285z"/>
<path d="M2580 935 c0 -247 2 -285 15 -285 13 0 15 32 15 223 l1 222 56 -222
c77 -309 83 -304 83 62 0 247 -2 285 -15 285 -13 0 -15 -31 -16 -212 l-1 -213
-47 185 c-26 102 -51 197 -54 213 -4 15 -14 27 -22 27 -13 0 -15 -40 -15 -285z"/>
<path d="M3167 1202 c-15 -16 -17 -50 -17 -270 0 -289 -2 -282 84 -282 28 0
57 5 64 12 14 14 17 168 2 168 -5 0 -10 -33 -12 -72 l-3 -73 -50 0 -50 0 0
250 0 250 50 0 50 0 3 -72 c2 -56 6 -73 17 -73 12 0 15 15 15 70 0 57 -4 74
-20 90 -27 27 -110 28 -133 2z"/>
<path d="M2370 685 c0 -24 5 -35 15 -35 10 0 15 11 15 35 0 24 -5 35 -15 35
-10 0 -15 -11 -15 -35z"/>
<path d="M2930 685 c0 -24 5 -35 15 -35 10 0 15 11 15 35 0 24 -5 35 -15 35
-10 0 -15 -11 -15 -35z"/>
<path d="M2002 463 c1 -51 2 -53 5 -15 2 23 8 40 14 37 11 -7 11 -3 3 19 -13
34 -24 13 -22 -41z"/>
<path d="M2075 489 c-9 -17 -14 -33 -12 -36 3 -2 9 6 13 19 7 20 9 17 15 -22
l6 -45 1 58 c1 31 0 57 -3 57 -2 0 -12 -14 -20 -31z"/>
<path d="M2128 465 c4 -55 4 -55 35 -54 31 2 31 2 5 6 -26 4 -28 8 -28 54 0
27 -3 49 -7 49 -5 0 -6 -25 -5 -55z"/>
<path d="M2212 463 c2 -58 2 -58 5 -10 2 26 8 45 13 42 6 -3 7 1 4 9 -13 34
-24 13 -22 -41z"/>
<path d="M2473 465 c0 -33 2 -45 4 -27 2 18 2 45 0 60 -2 15 -4 0 -4 -33z"/>
<path d="M2527 493 c-3 -16 -2 -31 1 -35 4 -4 8 9 9 28 3 41 -3 45 -10 7z"/>
<path d="M2830 497 c0 -25 65 -96 77 -84 3 4 2 7 -4 7 -6 0 -9 10 -6 23 3 15
2 18 -4 9 -13 -17 -58 31 -50 52 4 9 2 16 -3 16 -6 0 -10 -10 -10 -23z"/>
<path d="M2876 505 c4 -8 8 -15 10 -15 2 0 4 7 4 15 0 8 -4 15 -10 15 -5 0 -7
-7 -4 -15z"/>
<path d="M2979 485 c0 -22 -2 -48 -4 -57 -2 -10 0 -18 5 -18 11 0 19 93 8 105
-4 5 -8 -8 -9 -30z"/>
<path d="M3056 505 c-3 -8 -1 -15 3 -15 5 0 11 7 15 15 3 8 1 15 -3 15 -5 0
-11 -7 -15 -15z"/>
<path d="M2340 470 c0 -11 4 -20 8 -20 4 0 8 9 8 20 0 11 -4 20 -8 20 -4 0 -8
-9 -8 -20z"/>
<path d="M2375 480 c3 -5 11 -10 16 -10 6 0 7 5 4 10 -3 6 -11 10 -16 10 -6 0
-7 -4 -4 -10z"/>
<path d="M2609 476 c10 -12 8 -15 -11 -18 -22 -3 -22 -4 3 -9 21 -5 26 -2 24
10 -2 9 -4 19 -4 24 -1 4 -6 7 -12 7 -8 0 -8 -4 0 -14z"/>
<path d="M2663 450 c0 -25 2 -35 4 -22 2 12 2 32 0 45 -2 12 -4 2 -4 -23z"/>
<path d="M2700 451 c0 -23 2 -41 4 -41 8 0 12 71 4 76 -4 3 -8 -13 -8 -35z"/>
<path d="M3243 450 c0 -25 2 -35 4 -22 2 12 2 32 0 45 -2 12 -4 2 -4 -23z"/>
<path d="M3283 435 c0 -33 2 -45 4 -27 2 18 2 45 0 60 -2 15 -4 0 -4 -33z"/>
<path d="M3328 456 c3 -23 -1 -36 -10 -39 -9 -3 -9 -4 2 -3 16 1 28 76 13 76
-5 0 -7 -15 -5 -34z"/>
<path d="M3000 474 c0 -5 6 -19 14 -29 13 -18 14 -18 25 4 7 13 10 25 8 28 -3
2 -8 -6 -12 -18 l-7 -22 -14 24 c-7 13 -13 19 -14 13z"/>
<path d="M2030 464 c0 -13 18 -39 24 -34 2 3 -2 14 -10 24 -8 11 -14 16 -14
10z"/>
<path d="M2158 463 c7 -3 16 -2 19 1 4 3 -2 6 -13 5 -11 0 -14 -3 -6 -6z"/>
<path d="M2274 463 c3 -6 2 -14 -3 -18 -11 -6 -4 -35 8 -35 9 0 6 48 -4 57 -4
5 -5 3 -1 -4z"/>
<path d="M2815 450 c-10 -16 14 -40 39 -39 19 1 18 2 -4 8 -15 4 -24 14 -24
24 2 19 -2 22 -11 7z"/>
<path d="M3060 449 c0 -5 5 -7 10 -4 6 3 10 8 10 11 0 2 -4 4 -10 4 -5 0 -10
-5 -10 -11z"/>
<path d="M2386 436 c6 -16 4 -18 -19 -14 -15 3 -24 1 -21 -3 7 -13 42 -11 50
2 3 6 1 16 -5 22 -9 9 -10 7 -5 -7z"/>
<path d="M2564 430 c1 -8 10 -16 21 -17 15 -1 15 0 3 3 -9 3 -19 11 -21 17 -2
7 -3 5 -3 -3z"/>
<path d="M2526 425 c-3 -8 -1 -15 4 -15 6 0 10 7 10 15 0 8 -2 15 -4 15 -2 0
-6 -7 -10 -15z"/>
<path d="M2610 420 c0 -5 5 -10 11 -10 5 0 7 5 4 10 -3 6 -8 10 -11 10 -2 0
-4 -4 -4 -10z"/>
<path d="M3190 419 c0 -5 9 -9 20 -9 11 0 20 2 20 4 0 2 -9 6 -20 9 -11 3 -20
1 -20 -4z"/>
</g>
</svg>
